<?xml version="1.0" standalone="no"?>
<!DOCTYPE svg PUBLIC "-//W3C//DTD SVG 20010904//EN"
 "http://www.w3.org/TR/2001/REC-SVG-20010904/DTD/svg10.dtd">
<svg version="1.0" xmlns="http://www.w3.org/2000/svg"
 width="600.000000pt" height="600.000000pt" viewBox="0 0 600.000000 600.000000"
 preserveAspectRatio="xMidYMid meet">

<g transform="translate(0.000000,600.000000) scale(0.100000,-0.100000)"
fill="#000000" stroke="none">
<path d="M2865 4549 c-38 -11 -113 -24 -165 -29 -299 -29 -524 -128 -683 -300
-36 -39 -72 -84 -78 -100 -7 -15 -26 -36 -42 -45 -48 -29 -164 -143 -200 -198
-70 -107 -124 -305 -114 -418 3 -32 -2 -59 -15 -85 -30 -62 -42 -169 -29 -255
17 -107 101 -266 101 -190 0 12 5 21 11 21 7 0 9 -23 5 -72 -5 -51 -2 -93 9
-138 20 -83 22 -94 13 -98 -4 -1 -27 -10 -50 -18 -52 -18 -81 -45 -116 -104
-26 -43 -27 -51 -26 -180 1 -213 41 -346 151 -503 98 -139 128 -165 208 -176
35 -5 40 -9 46 -41 4 -19 15 -73 24 -120 36 -183 77 -281 164 -388 28 -34 51
-63 51 -65 0 -2 -41 -16 -91 -32 -65 -21 -96 -36 -109 -55 -19 -27 -50 -111
-50 -137 0 -9 -9 -26 -19 -37 -28 -31 -60 -96 -67 -136 -8 -43 -21 -60 -45
-60 -48 0 2 -32 156 -100 28 -12 58 -26 67 -31 22 -11 28 -11 28 -1 0 4 -16
16 -36 27 -58 31 -94 79 -94 126 0 50 20 97 54 128 17 16 26 35 26 54 0 42 20
104 39 121 17 14 166 66 192 66 8 0 30 -20 49 -45 19 -25 39 -45 44 -45 10 0
106 -86 106 -95 0 -2 -34 -11 -75 -21 -41 -10 -75 -23 -75 -29 0 -18 39 -50
99 -81 76 -41 82 -45 145 -93 31 -24 54 -46 52 -49 -8 -8 -155 68 -271 140
-108 66 -185 128 -185 148 0 6 -4 10 -10 10 -17 0 -11 -25 10 -43 79 -67 234
-170 330 -217 25 -12 54 -30 65 -40 11 -10 85 -48 165 -85 80 -37 197 -91 260
-121 124 -58 172 -67 190 -34 6 10 25 26 43 34 17 8 84 38 147 66 165 74 332
158 355 180 11 10 72 51 135 91 63 40 119 76 125 81 5 4 34 27 63 50 28 23 52
49 51 57 0 11 -2 12 -6 4 -2 -7 -11 -13 -18 -13 -7 0 -15 -6 -18 -14 -5 -13
-120 -106 -131 -106 -3 0 -27 -15 -53 -34 -27 -18 -67 -44 -90 -56 -24 -13
-43 -27 -43 -32 0 -4 -7 -8 -15 -8 -9 0 -34 -9 -56 -21 -22 -11 -46 -18 -52
-16 -18 6 92 116 148 148 63 36 112 75 104 83 -4 4 -25 3 -48 -3 -31 -7 -43
-6 -49 4 -4 7 -16 14 -27 17 -31 5 -24 18 35 65 63 50 60 47 97 91 l28 33 71
-19 c138 -38 194 -85 194 -163 0 -26 8 -43 30 -64 55 -52 66 -145 24 -195 -15
-17 -24 -33 -21 -36 4 -5 134 57 156 73 3 2 -3 9 -11 16 -9 6 -19 28 -22 48
-7 41 -30 92 -57 128 -10 12 -21 39 -25 60 -16 90 -85 152 -215 192 -35 11
-64 21 -66 22 -1 2 11 18 28 37 110 126 157 234 194 440 24 135 24 136 85 144
62 8 103 45 194 175 105 149 150 296 150 496 1 105 -2 127 -22 171 -13 29 -36
64 -51 78 -34 33 -110 58 -133 45 -9 -5 -19 -5 -22 -1 -6 10 20 81 53 148 19
40 41 115 46 159 1 16 8 19 37 17 67 -6 190 46 278 118 58 48 132 140 126 157
-3 8 -2 12 2 9 8 -5 43 78 50 119 2 11 6 69 9 129 4 89 1 124 -17 199 -12 50
-26 98 -30 106 -15 30 -85 170 -95 191 -5 11 -13 20 -17 20 -5 0 -8 5 -8 11 0
18 -187 272 -255 345 -5 6 -25 28 -43 48 -35 38 -62 45 -82 21 -7 -8 -10 -15
-8 -15 3 0 -14 -21 -38 -47 -24 -26 -44 -56 -45 -67 0 -12 -3 -15 -6 -8 -3 9
-13 2 -29 -20 -54 -73 -70 -93 -94 -121 l-26 -29 -43 67 c-45 70 -122 135
-214 182 -50 25 -147 43 -147 27 0 -5 14 -21 32 -37 30 -25 31 -26 8 -18 -14
5 -41 18 -60 28 -44 25 -123 51 -186 63 -148 26 -187 36 -267 71 -83 36 -214
70 -261 68 -11 0 -52 -10 -91 -20z m1571 -196 c-6 -6 -46 30 -46 41 0 5 11 -1
25 -14 14 -13 23 -25 21 -27z m-109 -6 c-6 -15 -15 -27 -20 -27 -4 0 0 14 8
31 20 37 30 34 12 -4z m79 -10 c16 -18 42 -51 59 -73 16 -21 53 -67 82 -102
55 -65 163 -226 163 -242 0 -6 3 -10 8 -10 4 0 13 -15 20 -32 8 -18 22 -51 33
-73 62 -133 82 -357 41 -481 -30 -93 -102 -195 -161 -228 -11 -6 -37 -23 -58
-38 -34 -24 -69 -36 -156 -53 -15 -3 -25 -10 -22 -15 3 -5 1 -11 -4 -14 -5 -3
-11 1 -15 9 -7 18 -62 20 -69 3 -3 -8 -6 -6 -6 5 -1 12 -9 17 -28 17 -36 0
-173 42 -173 53 0 10 -26 37 -35 37 -4 0 -4 -7 -1 -16 4 -10 1 -14 -6 -11 -7
2 -12 12 -10 21 2 10 -13 33 -33 52 -45 42 -102 134 -116 189 -25 91 -5 301
41 433 11 30 17 59 14 63 -3 5 -1 9 3 9 5 0 17 17 28 38 10 20 27 49 37 63 13
20 15 29 5 39 -10 10 -9 12 5 7 12 -4 26 9 52 49 20 30 43 62 50 72 8 9 58 72
112 140 53 67 100 122 104 122 3 0 20 -15 36 -33z m74 -22 c0 -12 -29 -3 -34
10 -4 13 -2 14 14 5 11 -6 20 -13 20 -15z m-190 -5 c0 -5 -5 -10 -11 -10 -5 0
-7 5 -4 10 3 6 8 10 11 10 2 0 4 -4 4 -10z m234 -64 c30 -40 32 -48 11 -40 -8
4 -15 11 -15 18 0 6 -9 17 -20 24 -11 7 -20 17 -20 22 0 20 18 9 44 -24z
m-284 4 c0 -5 -5 -10 -11 -10 -5 0 -7 5 -4 10 3 6 8 10 11 10 2 0 4 -4 4 -10z
m-20 -30 c0 -5 -5 -10 -11 -10 -5 0 -7 5 -4 10 3 6 8 10 11 10 2 0 4 -4 4 -10z
m-40 -40 c0 -5 -5 -10 -11 -10 -5 0 -7 5 -4 10 3 6 8 10 11 10 2 0 4 -4 4 -10z
m453 -70 l21 -35 -32 34 c-33 35 -39 45 -21 39 5 -2 20 -19 32 -38z m-490 5
c-10 -13 -22 -25 -27 -25 -9 0 11 29 29 42 17 13 17 9 -2 -17z m-60 -39 c-10
-14 -22 -26 -26 -26 -5 0 2 13 15 29 28 35 37 32 11 -3z m587 -16 c0 -5 -4
-10 -10 -10 -5 0 -10 5 -10 10 0 6 5 10 10 10 6 0 10 -4 10 -10z m24 -46 c3
-8 2 -12 -4 -9 -6 3 -10 10 -10 16 0 14 7 11 14 -7z m-664 -50 c0 -3 -7 -12
-15 -20 -16 -17 -18 -14 -9 10 6 15 24 23 24 10z m-59 -80 c-11 -15 -21 -33
-21 -40 0 -8 -4 -14 -10 -14 -5 0 -10 3 -10 6 0 10 22 48 38 67 24 27 27 11 3
-19z m799 6 c0 -5 -2 -10 -4 -10 -3 0 -8 5 -11 10 -3 6 -1 10 4 10 6 0 11 -4
11 -10z m40 -81 c0 -11 -4 -17 -10 -14 -5 3 -10 13 -10 21 0 8 5 14 10 14 6 0
10 -9 10 -21z m-887 -29 c-3 -12 -8 -19 -11 -16 -5 6 5 36 12 36 2 0 2 -9 -1
-20z m-26 -72 c-3 -8 -6 -5 -6 6 -1 11 2 17 5 13 3 -3 4 -12 1 -19z m962 -132
c-5 -6 -9 -2 -9 11 0 11 -2 42 -5 69 -5 48 -5 48 9 -11 8 -36 10 -64 5 -69z
m-982 52 c-3 -8 -6 -5 -6 6 -1 11 2 17 5 13 3 -3 4 -12 1 -19z m13 -85 c0 -45
-5 -40 -13 10 -3 22 -2 35 4 32 5 -4 9 -22 9 -42z m-115 -28 l80 0 0 -90 c0
-125 37 -207 145 -320 46 -47 58 -67 58 -93 1 -41 22 -144 32 -157 23 -30 51
-135 48 -181 l-3 -49 -40 2 c-22 2 -74 6 -115 10 l-75 8 -49 74 c-46 69 -55
76 -125 108 -71 33 -81 35 -146 29 -38 -4 -95 -13 -125 -21 -30 -8 -64 -15
-75 -15 -18 0 -18 2 5 21 l25 21 -35 -8 c-19 -4 -47 -7 -61 -8 -14 -1 -33 -7
-42 -14 -9 -8 -21 -11 -27 -7 -5 3 -15 -5 -22 -19 -6 -14 -14 -26 -18 -26 -9
0 -33 -97 -26 -108 8 -14 118 -6 160 12 21 9 50 16 65 16 14 0 59 9 99 20 39
11 88 20 108 20 42 0 120 -23 182 -54 l43 -21 -43 -7 c-24 -3 -53 -4 -65 -1
-36 8 -412 -17 -487 -32 -50 -11 -81 -24 -113 -49 -78 -60 -185 -61 -254 -2
-45 38 -99 53 -244 66 -82 8 -306 18 -437 20 -39 0 -35 12 10 31 123 54 182
60 280 29 35 -11 79 -20 97 -20 18 0 50 -7 71 -16 22 -9 65 -18 96 -19 68 -3
75 7 53 75 -7 25 -14 41 -14 35 -1 -5 -10 4 -21 22 -14 24 -29 34 -57 38 -21
4 -51 11 -67 16 -16 5 -36 9 -45 9 -13 -1 -13 -3 3 -15 34 -26 11 -27 -88 -6
-102 22 -196 28 -196 11 0 -5 -6 -10 -13 -10 -8 0 -40 -14 -73 -30 -50 -26
-64 -40 -95 -92 -20 -34 -42 -65 -50 -69 -20 -10 -220 -31 -227 -24 -8 7 14
163 28 199 l11 29 29 -46 c62 -97 144 -166 126 -104 -18 58 -18 134 -2 169 45
95 209 193 416 249 159 43 187 51 245 66 146 38 389 159 454 225 l32 33 142 0
c123 1 150 4 199 24 31 12 67 31 80 41 16 13 31 17 48 12 14 -4 61 -7 105 -7z
m115 -136 c0 -16 -4 -29 -10 -29 -5 0 -10 16 -10 36 0 21 4 33 10 29 6 -3 10
-19 10 -36z m960 -45 c-7 -25 -17 -47 -21 -50 -12 -7 -11 12 0 34 6 9 13 35
17 57 5 25 9 33 12 21 2 -10 -2 -38 -8 -62z m-957 -9 c-3 -9 -8 -14 -10 -11
-3 3 -2 9 2 15 9 16 15 13 8 -4z m37 -90 c0 -5 -5 -3 -10 5 -5 8 -10 20 -10
25 0 6 5 3 10 -5 5 -8 10 -19 10 -25z m867 -26 c-9 -6 -17 -16 -17 -24 0 -15
-18 -30 -26 -22 -3 2 7 19 22 36 14 18 29 29 33 26 3 -4 -2 -11 -12 -16z
m-814 -29 c3 -11 1 -20 -4 -20 -5 0 -9 2 -9 4 0 2 -3 11 -6 20 -3 9 -2 16 4
16 5 0 12 -9 15 -20z m757 -49 c0 -6 -4 -13 -10 -16 -5 -3 -10 1 -10 9 0 9 5
16 10 16 6 0 10 -4 10 -9z m-55 -51 c-3 -5 -12 -10 -18 -10 -7 0 -6 4 3 10 19
12 23 12 15 0z m-35 -18 c0 -8 -43 -32 -58 -32 -6 0 49 40 56 40 1 0 2 -4 2
-8z m-545 -22 c3 -5 2 -10 -4 -10 -5 0 -13 5 -16 10 -3 6 -2 10 4 10 5 0 13
-4 16 -10z m61 -47 c-7 -7 -26 7 -26 19 0 6 6 6 15 -2 9 -7 13 -15 11 -17z
m214 -7 c0 -3 -4 -8 -10 -11 -5 -3 -10 -1 -10 4 0 6 5 11 10 11 6 0 10 -2 10
-4z m70 -12 c0 -8 -4 -12 -10 -9 -5 3 -10 10 -10 16 0 5 5 9 10 9 6 0 10 -7
10 -16z m-145 -14 c3 -5 -1 -10 -9 -10 -9 0 -16 5 -16 10 0 6 4 10 9 10 6 0
13 -4 16 -10z m58 -7 c-7 -2 -19 -2 -25 0 -7 3 -2 5 12 5 14 0 19 -2 13 -5z
m-2650 -417 c3 -7 9 -35 13 -62 l7 -49 -37 33 c-37 32 -76 42 -76 20 0 -7 14
-22 30 -33 16 -11 30 -24 30 -28 0 -5 7 -15 15 -23 13 -13 12 -21 -5 -65 -22
-56 -27 -157 -9 -208 18 -52 26 -35 25 52 -1 77 15 147 34 147 15 0 29 -56 34
-130 4 -64 14 -126 42 -262 5 -22 3 -28 -11 -28 -17 0 -64 49 -79 84 -8 18
-10 18 -13 4 -9 -37 39 -98 92 -115 22 -7 32 -18 38 -44 4 -19 12 -46 17 -61
7 -25 6 -28 -15 -28 -33 0 -65 29 -132 122 -94 130 -125 208 -148 378 -21 150
-2 252 55 297 21 17 87 16 93 -1z m840 4 c54 -5 115 -15 135 -21 73 -22 108
-72 97 -138 -7 -45 -11 -48 -34 -27 -38 33 -175 98 -247 116 -137 34 -250 22
-356 -38 -92 -52 -69 -66 59 -36 49 11 98 15 173 11 91 -4 124 -11 248 -52
107 -35 142 -51 142 -63 0 -22 -22 -92 -38 -119 -36 -64 -152 -93 -378 -93
-316 0 -387 47 -395 260 -5 140 9 163 117 191 79 21 312 25 477 9z m1340 -1
c137 -21 163 -56 154 -204 -15 -219 -87 -261 -434 -253 -195 5 -258 18 -313
64 -32 27 -52 66 -63 121 -8 40 -4 43 158 96 147 48 297 60 401 33 120 -31
147 -15 58 35 -62 35 -152 59 -225 59 -107 0 -275 -58 -367 -127 -28 -21 -33
-22 -38 -8 -4 9 -4 37 -1 63 8 76 59 105 212 122 110 12 379 11 458 -1z m499
-16 c34 -36 48 -90 48 -183 -1 -165 -48 -325 -131 -446 -71 -104 -122 -154
-155 -154 -21 0 -25 4 -19 18 4 9 9 33 12 52 7 44 20 60 47 60 28 0 72 46 82
85 7 30 7 30 -34 -12 -51 -54 -75 -57 -61 -10 15 49 41 214 46 287 3 35 11 73
19 84 13 19 14 18 31 -20 12 -28 16 -62 15 -121 -1 -46 1 -83 4 -83 3 0 12 16
20 35 21 51 18 154 -6 211 -23 53 -20 63 40 123 18 17 30 34 27 38 -12 11 -56
-8 -84 -37 -15 -16 -31 -30 -35 -30 -5 0 -8 20 -8 45 0 58 25 85 78 85 29 0
45 -7 64 -27z m-1308 -186 c39 -26 57 -75 45 -127 -15 -65 -6 -216 17 -267 25
-57 38 -54 29 5 -10 68 -13 89 -19 162 l-5 65 15 -35 c48 -108 139 -138 444
-147 330 -9 466 28 501 136 10 33 29 64 29 49 0 -15 -42 -221 -64 -313 -13
-55 -27 -118 -30 -140 -4 -22 -13 -69 -21 -105 -8 -36 -21 -102 -29 -147 -28
-148 -69 -227 -191 -373 -85 -101 -172 -178 -332 -297 -200 -148 -267 -182
-397 -204 -134 -23 -264 9 -401 96 -293 187 -566 460 -635 636 -12 30 -39 142
-61 249 -21 107 -48 236 -58 285 -49 224 -61 290 -60 328 0 23 2 38 4 32 2 -5
11 -36 21 -68 24 -80 68 -118 165 -143 104 -27 488 -28 594 -2 151 37 170 54
214 203 16 53 33 101 39 107 36 36 140 45 186 15z m-699 -1636 c3 -5 1 -12 -4
-15 -12 -8 -41 3 -41 15 0 12 37 12 45 0z m190 -41 c86 -62 191 -114 271 -134
85 -22 223 -20 315 3 93 24 235 100 303 163 29 27 96 22 96 -7 0 -14 -113
-153 -139 -171 -36 -25 -157 -66 -234 -80 -152 -26 -410 -11 -480 28 -78 44
-248 175 -253 195 -17 68 29 69 121 3z m505 -325 c-67 -30 -73 -30 -135 0
l-50 23 120 1 120 0 -55 -24z"/>
<path d="M1642 2200 c0 -14 2 -19 5 -12 2 6 2 18 0 25 -3 6 -5 1 -5 -13z"/>
<path d="M2756 1791 c-9 -10 -20 -31 -25 -47 -23 -81 73 -136 127 -74 22 26
35 25 27 -1 -5 -15 -4 -19 4 -15 6 4 11 3 11 -3 0 -17 66 -51 100 -51 38 0 88
33 100 66 10 24 35 35 27 12 -4 -14 43 -38 75 -38 10 0 30 12 45 26 20 20 24
32 20 59 -6 38 -35 87 -47 80 -4 -2 -1 -25 7 -50 12 -36 13 -48 3 -60 -18 -22
-43 -18 -70 10 -28 30 -49 31 -82 6 -26 -21 -74 -37 -97 -32 -8 1 -18 -3 -22
-11 -7 -10 -9 -10 -9 0 0 16 -50 61 -69 62 -8 0 -30 -12 -49 -27 -26 -20 -39
-24 -51 -16 -21 13 -26 48 -10 84 14 36 8 45 -15 20z m254 -145 c0 -11 -19
-15 -25 -6 -3 5 1 10 9 10 9 0 16 -2 16 -4z"/>
<path d="M2455 1510 c-47 -18 -59 -70 -16 -70 15 0 34 -27 77 -107 82 -155
153 -273 188 -312 17 -18 60 -47 96 -64 57 -26 79 -31 175 -35 133 -5 216 13
284 61 74 54 110 107 240 361 31 58 54 91 69 97 29 11 26 35 -10 62 -26 20
-26 20 -60 -1 -42 -26 -143 -46 -336 -67 -144 -16 -164 -16 -315 -1 -185 20
-299 42 -342 67 -20 11 -37 14 -50 9z m130 -90 c69 -17 337 -50 410 -50 84 0
301 25 404 46 40 8 76 12 79 9 10 -10 -35 -60 -69 -76 -92 -44 -174 -54 -429
-54 -254 0 -286 4 -376 47 -22 11 -48 32 -57 48 -27 45 -26 45 38 30z m400
-364 c88 0 189 3 225 8 l65 9 -23 -26 c-13 -14 -47 -36 -75 -48 -45 -20 -69
-23 -172 -24 -114 0 -123 2 -179 30 -33 17 -66 40 -73 51 -14 21 -13 21 29 11
24 -5 115 -10 203 -11z"/>
<path d="M2853 857 c-19 -30 237 -46 290 -18 15 8 27 17 27 20 0 9 -311 7
-317 -2z"/>
<path d="M2215 900 c-3 -5 -1 -10 4 -10 6 0 11 5 11 10 0 6 -2 10 -4 10 -3 0
-8 -4 -11 -10z"/>
<path d="M3815 896 c60 -18 72 -19 60 -7 -6 5 -32 12 -60 15 l-50 6 50 -14z"/>
<path d="M2165 890 c-3 -5 1 -10 9 -10 8 0 18 5 21 10 3 6 -1 10 -9 10 -8 0
-18 -4 -21 -10z"/>
<path d="M3900 866 c0 -2 7 -7 16 -10 8 -3 12 -2 9 4 -6 10 -25 14 -25 6z"/>
<path d="M2031 834 c0 -11 3 -14 6 -6 3 7 2 16 -1 19 -3 4 -6 -2 -5 -13z"/>
<path d="M3680 800 c0 -11 2 -20 4 -20 2 0 6 9 9 20 3 11 1 20 -4 20 -5 0 -9
-9 -9 -20z"/>
<path d="M3318 313 c-16 -8 -28 -18 -28 -23 0 -12 63 0 72 14 20 29 0 33 -44
9z"/>
<path d="M2672 303 c2 -10 13 -18 24 -19 12 -1 26 -4 32 -8 6 -3 13 -2 17 3 6
10 -44 41 -65 41 -6 0 -10 -8 -8 -17z"/>
</g>
</svg>
